# Blender v2.79 (sub 0) OBJ File: ''
# www.blender.org
mtllib materials.mtl
o Text_T.001
v -0.048000 -0.000000 0.250000
v -0.048000 0.682000 0.250000
v 0.050000 0.682000 0.250000
v 0.050000 -0.000000 0.250000
v -0.048000 0.000000 -0.250000
v -0.048000 0.682000 -0.250000
v 0.050000 0.682000 -0.250000
v 0.050000 0.000000 -0.250000
v -0.048000 0.000000 -0.250000
v -0.048000 -0.000000 0.250000
v -0.048000 0.682000 -0.250000
v -0.048000 0.682000 0.250000
v 0.050000 0.682000 -0.250000
v 0.050000 0.682000 0.250000
v 0.050000 0.000000 -0.250000
v 0.050000 -0.000000 0.250000
vn 0.0000 -0.0000 1.0000
vn 0.0000 0.0000 -1.0000
vn -0.7071 -0.7071 0.0000
vn -0.7071 0.7071 0.0000
vn 0.7071 0.7071 0.0000
vn 0.7071 -0.7071 0.0000
usemtl White
s off
f 1//1 3//1 2//1
f 1//1 4//1 3//1
f 7//2 5//2 6//2
f 8//2 5//2 7//2
s 1
f 10//3 12//4 11//4 9//3
f 12//4 14//5 13//5 11//4
f 14//5 16//6 15//6 13//5
f 16//6 10//3 9//3 15//6
