# Blender v2.79 (sub 0) OBJ File: ''
# www.blender.org
mtllib materials.mtl
o Text_T.001
v -0.216000 -0.000000 0.250000
v -0.216000 0.007000 0.250000
v -0.176431 0.054981 0.250000
v -0.134111 0.106852 0.250000
v -0.091125 0.161000 0.250000
v -0.049556 0.215815 0.250000
v -0.011486 0.269685 0.250000
v 0.021000 0.321000 0.250000
v 0.035667 0.346954 0.250000
v 0.047667 0.370630 0.250000
v 0.057000 0.393250 0.250000
v 0.063667 0.416037 0.250000
v 0.067667 0.440213 0.250000
v 0.069000 0.467000 0.250000
v 0.064986 0.502523 0.250000
v 0.053556 0.533519 0.250000
v 0.035625 0.559125 0.250000
v 0.012111 0.578481 0.250000
v -0.016069 0.590727 0.250000
v -0.048000 0.595000 0.250000
v -0.072602 0.593046 0.250000
v -0.097481 0.586704 0.250000
v -0.122750 0.575250 0.250000
v -0.148519 0.557963 0.250000
v -0.174898 0.534120 0.250000
v -0.202000 0.503000 0.250000
v -0.202000 0.626000 0.250000
v -0.174796 0.646093 0.250000
v -0.148037 0.662407 0.250000
v -0.121500 0.675000 0.250000
v -0.094963 0.683926 0.250000
v -0.068204 0.689241 0.250000
v -0.041000 0.691000 0.250000
v 0.017116 0.683972 0.250000
v 0.067593 0.663778 0.250000
v 0.109125 0.631750 0.250000
v 0.140407 0.589222 0.250000
v 0.160134 0.537528 0.250000
v 0.167000 0.478000 0.250000
v 0.161852 0.423509 0.250000
v 0.145815 0.369074 0.250000
v 0.118000 0.311750 0.250000
v 0.077519 0.248593 0.250000
v 0.023481 0.176657 0.250000
v -0.045000 0.093000 0.250000
v 0.216000 0.093000 0.250000
v 0.216000 -0.000000 0.250000
v -0.216000 0.000000 -0.250000
v -0.216000 0.007000 -0.250000
v -0.176431 0.054981 -0.250000
v -0.134111 0.106852 -0.250000
v -0.091125 0.161000 -0.250000
v -0.049556 0.215815 -0.250000
v -0.011486 0.269685 -0.250000
v 0.021000 0.321000 -0.250000
v 0.035667 0.346954 -0.250000
v 0.047667 0.370630 -0.250000
v 0.057000 0.393250 -0.250000
v 0.063667 0.416037 -0.250000
v 0.067667 0.440213 -0.250000
v 0.069000 0.467000 -0.250000
v 0.064986 0.502523 -0.250000
v 0.053556 0.533519 -0.250000
v 0.035625 0.559125 -0.250000
v 0.012111 0.578481 -0.250000
v -0.016069 0.590727 -0.250000
v -0.048000 0.595000 -0.250000
v -0.072602 0.593046 -0.250000
v -0.097481 0.586704 -0.250000
v -0.122750 0.575250 -0.250000
v -0.148519 0.557963 -0.250000
v -0.174898 0.534120 -0.250000
v -0.202000 0.503000 -0.250000
v -0.202000 0.626000 -0.250000
v -0.174796 0.646093 -0.250000
v -0.148037 0.662407 -0.250000
v -0.121500 0.675000 -0.250000
v -0.094963 0.683926 -0.250000
v -0.068204 0.689241 -0.250000
v -0.041000 0.691000 -0.250000
v 0.017116 0.683972 -0.250000
v 0.067593 0.663778 -0.250000
v 0.109125 0.631750 -0.250000
v 0.140407 0.589222 -0.250000
v 0.160134 0.537528 -0.250000
v 0.167000 0.478000 -0.250000
v 0.161852 0.423509 -0.250000
v 0.145815 0.369074 -0.250000
v 0.118000 0.311750 -0.250000
v 0.077519 0.248593 -0.250000
v 0.023481 0.176657 -0.250000
v -0.045000 0.093000 -0.250000
v 0.216000 0.093000 -0.250000
v 0.216000 0.000000 -0.250000
v -0.216000 0.000000 -0.250000
v -0.216000 -0.000000 0.250000
v -0.216000 0.007000 -0.250000
v -0.216000 0.007000 0.250000
v -0.176431 0.054981 -0.250000
v -0.176431 0.054981 0.250000
v -0.134111 0.106852 -0.250000
v -0.134111 0.106852 0.250000
v -0.091125 0.161000 -0.250000
v -0.091125 0.161000 0.250000
v -0.049556 0.215815 -0.250000
v -0.049556 0.215815 0.250000
v -0.011486 0.269685 -0.250000
v -0.011486 0.269685 0.250000
v 0.021000 0.321000 -0.250000
v 0.021000 0.321000 0.250000
v 0.035667 0.346954 -0.250000
v 0.035667 0.346954 0.250000
v 0.047667 0.370630 -0.250000
v 0.047667 0.370630 0.250000
v 0.057000 0.393250 -0.250000
v 0.057000 0.393250 0.250000
v 0.063667 0.416037 -0.250000
v 0.063667 0.416037 0.250000
v 0.067667 0.440213 -0.250000
v 0.067667 0.440213 0.250000
v 0.069000 0.467000 -0.250000
v 0.069000 0.467000 0.250000
v 0.064986 0.502523 -0.250000
v 0.064986 0.502523 0.250000
v 0.053556 0.533519 -0.250000
v 0.053556 0.533519 0.250000
v 0.035625 0.559125 -0.250000
v 0.035625 0.559125 0.250000
v 0.012111 0.578481 -0.250000
v 0.012111 0.578481 0.250000
v -0.016069 0.590727 -0.250000
v -0.016069 0.590727 0.250000
v -0.048000 0.595000 -0.250000
v -0.048000 0.595000 0.250000
v -0.072602 0.593046 -0.250000
v -0.072602 0.593046 0.250000
v -0.097481 0.586704 -0.250000
v -0.097481 0.586704 0.250000
v -0.122750 0.575250 -0.250000
v -0.122750 0.575250 0.250000
v -0.148519 0.557963 -0.250000
v -0.148519 0.557963 0.250000
v -0.174898 0.534120 -0.250000
v -0.174898 0.534120 0.250000
v -0.202000 0.503000 -0.250000
v -0.202000 0.503000 0.250000
v -0.202000 0.626000 -0.250000
v -0.202000 0.626000 0.250000
v -0.174796 0.646093 -0.250000
v -0.174796 0.646093 0.250000
v -0.148037 0.662407 -0.250000
v -0.148037 0.662407 0.250000
v -0.121500 0.675000 -0.250000
v -0.121500 0.675000 0.250000
v -0.094963 0.683926 -0.250000
v -0.094963 0.683926 0.250000
v -0.068204 0.689241 -0.250000
v -0.068204 0.689241 0.250000
v -0.041000 0.691000 -0.250000
v -0.041000 0.691000 0.250000
v 0.017116 0.683972 -0.250000
v 0.017116 0.683972 0.250000
v 0.067593 0.663778 -0.250000
v 0.067593 0.663778 0.250000
v 0.109125 0.631750 -0.250000
v 0.109125 0.631750 0.250000
v 0.140407 0.589222 -0.250000
v 0.140407 0.589222 0.250000
v 0.160134 0.537528 -0.250000
v 0.160134 0.537528 0.250000
v 0.167000 0.478000 -0.250000
v 0.167000 0.478000 0.250000
v 0.161852 0.423509 -0.250000
v 0.161852 0.423509 0.250000
v 0.145815 0.369074 -0.250000
v 0.145815 0.369074 0.250000
v 0.118000 0.311750 -0.250000
v 0.118000 0.311750 0.250000
v 0.077519 0.248593 -0.250000
v 0.077519 0.248593 0.250000
v 0.023481 0.176657 -0.250000
v 0.023481 0.176657 0.250000
v -0.045000 0.093000 -0.250000
v -0.045000 0.093000 0.250000
v 0.216000 0.093000 -0.250000
v 0.216000 0.093000 0.250000
v 0.216000 0.000000 -0.250000
v 0.216000 -0.000000 0.250000
vn 0.0000 0.0000 1.0000
vn 0.0000 0.0000 -1.0000
vn -0.7071 -0.7071 0.0000
vn -0.9411 0.3380 0.0000
vn -0.7732 0.6342 0.0000
vn -0.7790 0.6270 0.0000
vn -0.7900 0.6130 0.0000
vn -0.8068 0.5907 0.0000
vn -0.8310 0.5562 0.0000
vn -0.8580 0.5136 0.0000
vn -0.8815 0.4722 0.0000
vn -0.9089 0.4171 0.0000
vn -0.9434 0.3316 0.0000
vn -0.9749 0.2224 0.0000
vn -0.9943 0.1066 0.0000
vn -0.9995 -0.0314 0.0000
vn -0.9730 -0.2308 0.0000
vn -0.8860 -0.4636 0.0000
vn -0.7341 -0.6790 0.0000
vn -0.5221 -0.8529 0.0000
vn -0.2681 -0.9633 0.0000
vn -0.0269 -0.9996 0.0000
vn 0.1637 -0.9865 0.0000
vn 0.3312 -0.9435 0.0000
vn 0.4866 -0.8736 0.0000
vn 0.6154 -0.7882 0.0000
vn 0.7136 -0.7006 0.0000
vn -0.3506 -0.9365 0.0000
vn -0.8928 0.4505 0.0000
vn -0.5579 0.8299 0.0000
vn -0.4753 0.8798 0.0000
vn -0.3744 0.9272 0.0000
vn -0.2573 0.9663 0.0000
vn -0.1299 0.9915 0.0000
vn 0.0279 0.9996 0.0000
vn 0.2478 0.9688 0.0000
vn 0.4958 0.8684 0.0000
vn 0.7151 0.6990 0.0000
vn 0.8779 0.4789 0.0000
vn 0.9714 0.2374 0.0000
vn 0.9999 0.0103 0.0000
vn 0.9819 -0.1892 0.0000
vn 0.9326 -0.3608 0.0000
vn 0.8723 -0.4889 0.0000
vn 0.8213 -0.5705 0.0000
vn 0.7868 -0.6171 0.0000
vn 0.9037 0.4281 0.0000
vn 0.7071 0.7071 0.0000
vn 0.7071 -0.7071 0.0000
usemtl White
s off
f 32//1 34//1 33//1
f 31//1 34//1 32//1
f 31//1 35//1 34//1
f 30//1 35//1 31//1
f 29//1 35//1 30//1
f 29//1 36//1 35//1
f 28//1 36//1 29//1
f 27//1 36//1 28//1
f 27//1 37//1 36//1
f 26//1 25//1 27//1
f 25//1 24//1 27//1
f 24//1 23//1 27//1
f 23//1 22//1 27//1
f 22//1 21//1 27//1
f 21//1 20//1 27//1
f 20//1 37//1 27//1
f 19//1 37//1 20//1
f 18//1 37//1 19//1
f 18//1 38//1 37//1
f 17//1 38//1 18//1
f 16//1 38//1 17//1
f 16//1 39//1 38//1
f 15//1 39//1 16//1
f 14//1 39//1 15//1
f 14//1 40//1 39//1
f 13//1 40//1 14//1
f 12//1 40//1 13//1
f 12//1 41//1 40//1
f 11//1 41//1 12//1
f 10//1 41//1 11//1
f 9//1 41//1 10//1
f 9//1 42//1 41//1
f 8//1 42//1 9//1
f 7//1 42//1 8//1
f 7//1 43//1 42//1
f 6//1 43//1 7//1
f 6//1 44//1 43//1
f 5//1 44//1 6//1
f 5//1 45//1 44//1
f 4//1 45//1 5//1
f 3//1 45//1 4//1
f 3//1 46//1 45//1
f 3//1 47//1 46//1
f 2//1 47//1 3//1
f 1//1 47//1 2//1
f 81//2 79//2 80//2
f 81//2 78//2 79//2
f 82//2 78//2 81//2
f 82//2 77//2 78//2
f 82//2 76//2 77//2
f 83//2 76//2 82//2
f 83//2 75//2 76//2
f 83//2 74//2 75//2
f 84//2 74//2 83//2
f 72//2 73//2 74//2
f 71//2 72//2 74//2
f 70//2 71//2 74//2
f 69//2 70//2 74//2
f 68//2 69//2 74//2
f 67//2 68//2 74//2
f 84//2 67//2 74//2
f 84//2 66//2 67//2
f 84//2 65//2 66//2
f 85//2 65//2 84//2
f 85//2 64//2 65//2
f 85//2 63//2 64//2
f 86//2 63//2 85//2
f 86//2 62//2 63//2
f 86//2 61//2 62//2
f 87//2 61//2 86//2
f 87//2 60//2 61//2
f 87//2 59//2 60//2
f 88//2 59//2 87//2
f 88//2 58//2 59//2
f 88//2 57//2 58//2
f 88//2 56//2 57//2
f 89//2 56//2 88//2
f 89//2 55//2 56//2
f 89//2 54//2 55//2
f 90//2 54//2 89//2
f 90//2 53//2 54//2
f 91//2 53//2 90//2
f 91//2 52//2 53//2
f 92//2 52//2 91//2
f 92//2 51//2 52//2
f 92//2 50//2 51//2
f 93//2 50//2 92//2
f 94//2 50//2 93//2
f 94//2 49//2 50//2
f 94//2 48//2 49//2
s 1
f 96//3 98//4 97//4 95//3
f 98//4 100//5 99//5 97//4
f 100//5 102//6 101//6 99//5
f 102//6 104//7 103//7 101//6
f 104//7 106//8 105//8 103//7
f 106//8 108//9 107//9 105//8
f 108//9 110//10 109//10 107//9
f 110//10 112//11 111//11 109//10
f 112//11 114//12 113//12 111//11
f 114//12 116//13 115//13 113//12
f 116//13 118//14 117//14 115//13
f 118//14 120//15 119//15 117//14
f 120//15 122//16 121//16 119//15
f 122//16 124//17 123//17 121//16
f 124//17 126//18 125//18 123//17
f 126//18 128//19 127//19 125//18
f 128//19 130//20 129//20 127//19
f 130//20 132//21 131//21 129//20
f 132//21 134//22 133//22 131//21
f 134//22 136//23 135//23 133//22
f 136//23 138//24 137//24 135//23
f 138//24 140//25 139//25 137//24
f 140//25 142//26 141//26 139//25
f 142//26 144//27 143//27 141//26
f 144//27 146//28 145//28 143//27
f 146//28 148//29 147//29 145//28
f 148//29 150//30 149//30 147//29
f 150//30 152//31 151//31 149//30
f 152//31 154//32 153//32 151//31
f 154//32 156//33 155//33 153//32
f 156//33 158//34 157//34 155//33
f 158//34 160//35 159//35 157//34
f 160//35 162//36 161//36 159//35
f 162//36 164//37 163//37 161//36
f 164//37 166//38 165//38 163//37
f 166//38 168//39 167//39 165//38
f 168//39 170//40 169//40 167//39
f 170//40 172//41 171//41 169//40
f 172//41 174//42 173//42 171//41
f 174//42 176//43 175//43 173//42
f 176//43 178//44 177//44 175//43
f 178//44 180//45 179//45 177//44
f 180//45 182//46 181//46 179//45
f 182//46 184//47 183//47 181//46
f 184//47 186//48 185//48 183//47
f 186//48 188//49 187//49 185//48
f 188//49 96//3 95//3 187//49
