# Blender v2.79 (sub 0) OBJ File: ''
# www.blender.org
mtllib materials.mtl
o Text_T.001
v 0.221000 0.312000 0.250000
v 0.221000 0.224000 0.250000
v 0.148000 0.224000 0.250000
v 0.148000 -0.000000 0.250000
v 0.050000 -0.000000 0.250000
v 0.050000 0.224000 0.250000
v -0.239000 0.224000 0.250000
v -0.239000 0.269000 0.250000
v 0.106000 0.691000 0.250000
v 0.148000 0.691000 0.250000
v 0.148000 0.312000 0.250000
v 0.050000 0.312000 0.250000
v 0.050000 0.506000 0.250000
v 0.048000 0.506000 0.250000
v -0.108000 0.312000 0.250000
v 0.221000 0.312000 -0.250000
v 0.221000 0.224000 -0.250000
v 0.148000 0.224000 -0.250000
v 0.148000 0.000000 -0.250000
v 0.050000 0.000000 -0.250000
v 0.050000 0.224000 -0.250000
v -0.239000 0.224000 -0.250000
v -0.239000 0.269000 -0.250000
v 0.106000 0.691000 -0.250000
v 0.148000 0.691000 -0.250000
v 0.148000 0.312000 -0.250000
v 0.050000 0.312000 -0.250000
v 0.050000 0.506000 -0.250000
v 0.048000 0.506000 -0.250000
v -0.108000 0.312000 -0.250000
v 0.221000 0.312000 -0.250000
v 0.221000 0.312000 0.250000
v 0.221000 0.224000 -0.250000
v 0.221000 0.224000 0.250000
v 0.148000 0.224000 -0.250000
v 0.148000 0.224000 0.250000
v 0.148000 0.000000 -0.250000
v 0.148000 -0.000000 0.250000
v 0.050000 0.000000 -0.250000
v 0.050000 -0.000000 0.250000
v 0.050000 0.224000 -0.250000
v 0.050000 0.224000 0.250000
v -0.239000 0.224000 -0.250000
v -0.239000 0.224000 0.250000
v -0.239000 0.269000 -0.250000
v -0.239000 0.269000 0.250000
v 0.106000 0.691000 -0.250000
v 0.106000 0.691000 0.250000
v 0.148000 0.691000 -0.250000
v 0.148000 0.691000 0.250000
v 0.148000 0.312000 -0.250000
v 0.148000 0.312000 0.250000
v 0.050000 0.312000 -0.250000
v 0.050000 0.312000 0.250000
v 0.050000 0.506000 -0.250000
v 0.050000 0.506000 0.250000
v 0.048000 0.506000 -0.250000
v 0.048000 0.506000 0.250000
v -0.108000 0.312000 -0.250000
v -0.108000 0.312000 0.250000
vn 0.0000 -0.0000 1.0000
vn 0.0000 0.0000 -1.0000
vn 0.7071 0.7071 0.0000
vn 0.7071 -0.7071 0.0000
vn -0.7071 -0.7071 0.0000
vn -0.9418 0.3360 0.0000
vn -0.4284 0.9036 0.0000
vn -0.7071 0.7071 0.0000
vn 0.4321 -0.9018 0.0000
vn 0.9018 0.4321 0.0000
usemtl White
s off
f 8//1 10//1 9//1
f 8//1 14//1 10//1
f 14//1 13//1 10//1
f 13//1 11//1 10//1
f 8//1 15//1 14//1
f 12//1 11//1 13//1
f 8//1 12//1 15//1
f 8//1 11//1 12//1
f 8//1 1//1 11//1
f 8//1 2//1 1//1
f 7//1 2//1 8//1
f 6//2 2//2 7//2
f 5//1 3//1 6//1
f 3//1 2//1 6//1
f 5//1 4//1 3//1
f 25//2 23//2 24//2
f 29//2 23//2 25//2
f 28//2 29//2 25//2
f 26//2 28//2 25//2
f 30//2 23//2 29//2
f 26//2 27//2 28//2
f 27//2 23//2 30//2
f 26//2 23//2 27//2
f 16//2 23//2 26//2
f 17//2 23//2 16//2
f 17//2 22//2 23//2
f 17//1 21//1 22//1
f 18//2 20//2 21//2
f 17//1 18//1 21//1
f 19//2 20//2 18//2
s 1
f 32//3 34//4 33//4 31//3
f 34//4 36//4 35//4 33//4
f 36//4 38//4 37//4 35//4
f 38//4 40//5 39//5 37//4
f 40//5 42//5 41//5 39//5
f 42//5 44//5 43//5 41//5
f 44//5 46//6 45//6 43//5
f 46//6 48//7 47//7 45//6
f 48//7 50//3 49//3 47//7
f 50//3 52//3 51//3 49//3
f 52//3 32//3 31//3 51//3
f 54//8 56//5 55//5 53//8
f 56//5 58//9 57//9 55//5
f 58//9 60//10 59//10 57//9
f 60//10 54//8 53//8 59//10
