# Blender v2.79 (sub 0) OBJ File: ''
# www.blender.org
mtllib materials.mtl
o Text_T.001
v 0.079130 0.584634 0.250000
v 0.035370 0.547408 0.250000
v -0.004000 0.505625 0.250000
v -0.037704 0.460593 0.250000
v -0.064463 0.413616 0.250000
v -0.083000 0.366000 0.250000
v -0.068824 0.372935 0.250000
v -0.053259 0.379482 0.250000
v -0.036250 0.385250 0.250000
v -0.017741 0.389852 0.250000
v 0.002324 0.392898 0.250000
v 0.024000 0.394000 0.250000
v 0.075995 0.387106 0.250000
v 0.121963 0.367518 0.250000
v 0.160375 0.336875 0.250000
v 0.189704 0.296815 0.250000
v 0.208421 0.248977 0.250000
v 0.215000 0.195000 0.250000
v 0.207681 0.141347 0.250000
v 0.187111 0.092778 0.250000
v 0.155375 0.051375 0.250000
v 0.114556 0.019222 0.250000
v 0.066736 -0.001597 0.250000
v 0.014000 -0.009000 0.250000
v -0.047782 -0.001074 0.250000
v -0.101259 0.021741 0.250000
v -0.145125 0.058000 0.250000
v -0.178074 0.106259 0.250000
v -0.198801 0.165074 0.250000
v -0.206000 0.233000 0.250000
v -0.198069 0.318106 0.250000
v -0.174556 0.401519 0.250000
v -0.135875 0.481875 0.250000
v -0.082444 0.557815 0.250000
v -0.014681 0.627977 0.250000
v 0.067000 0.691000 0.250000
v 0.126000 0.616000 0.250000
v 0.038644 0.087644 0.250000
v 0.065148 0.098148 0.250000
v 0.086875 0.114875 0.250000
v 0.103185 0.137185 0.250000
v 0.113440 0.164440 0.250000
v 0.117000 0.196000 0.250000
v 0.113144 0.224611 0.250000
v 0.102148 0.249889 0.250000
v 0.084875 0.271000 0.250000
v 0.062185 0.287111 0.250000
v 0.034940 0.297389 0.250000
v 0.004000 0.301000 0.250000
v -0.015597 0.300278 0.250000
v -0.033111 0.297889 0.250000
v -0.049625 0.293500 0.250000
v -0.066222 0.286778 0.250000
v -0.083986 0.277389 0.250000
v -0.104000 0.265000 0.250000
v -0.109662 0.212704 0.250000
v -0.102296 0.168296 0.250000
v -0.084375 0.132500 0.250000
v -0.058370 0.106037 0.250000
v -0.026755 0.089630 0.250000
v 0.008000 0.084000 0.250000
v 0.079130 0.584634 -0.250000
v 0.035370 0.547408 -0.250000
v -0.004000 0.505625 -0.250000
v -0.037704 0.460593 -0.250000
v -0.064463 0.413616 -0.250000
v -0.083000 0.366000 -0.250000
v -0.068824 0.372935 -0.250000
v -0.053259 0.379482 -0.250000
v -0.036250 0.385250 -0.250000
v -0.017741 0.389852 -0.250000
v 0.002324 0.392898 -0.250000
v 0.024000 0.394000 -0.250000
v 0.075995 0.387106 -0.250000
v 0.121963 0.367518 -0.250000
v 0.160375 0.336875 -0.250000
v 0.189704 0.296815 -0.250000
v 0.208421 0.248977 -0.250000
v 0.215000 0.195000 -0.250000
v 0.207681 0.141347 -0.250000
v 0.187111 0.092778 -0.250000
v 0.155375 0.051375 -0.250000
v 0.114556 0.019222 -0.250000
v 0.066736 -0.001597 -0.250000
v 0.014000 -0.009000 -0.250000
v -0.047782 -0.001074 -0.250000
v -0.101259 0.021741 -0.250000
v -0.145125 0.058000 -0.250000
v -0.178074 0.106259 -0.250000
v -0.198801 0.165074 -0.250000
v -0.206000 0.233000 -0.250000
v -0.198069 0.318106 -0.250000
v -0.174556 0.401519 -0.250000
v -0.135875 0.481875 -0.250000
v -0.082444 0.557815 -0.250000
v -0.014681 0.627977 -0.250000
v 0.067000 0.691000 -0.250000
v 0.126000 0.616000 -0.250000
v 0.038644 0.087644 -0.250000
v 0.065148 0.098148 -0.250000
v 0.086875 0.114875 -0.250000
v 0.103185 0.137185 -0.250000
v 0.113440 0.164440 -0.250000
v 0.117000 0.196000 -0.250000
v 0.113144 0.224611 -0.250000
v 0.102148 0.249889 -0.250000
v 0.084875 0.271000 -0.250000
v 0.062185 0.287111 -0.250000
v 0.034940 0.297389 -0.250000
v 0.004000 0.301000 -0.250000
v -0.015597 0.300278 -0.250000
v -0.033111 0.297889 -0.250000
v -0.049625 0.293500 -0.250000
v -0.066222 0.286778 -0.250000
v -0.083986 0.277389 -0.250000
v -0.104000 0.265000 -0.250000
v -0.109662 0.212704 -0.250000
v -0.102296 0.168296 -0.250000
v -0.084375 0.132500 -0.250000
v -0.058370 0.106037 -0.250000
v -0.026755 0.089630 -0.250000
v 0.008000 0.084000 -0.250000
v 0.079130 0.584634 -0.250000
v 0.079130 0.584634 0.250000
v 0.035370 0.547408 -0.250000
v 0.035370 0.547408 0.250000
v -0.004000 0.505625 -0.250000
v -0.004000 0.505625 0.250000
v -0.037704 0.460593 -0.250000
v -0.037704 0.460593 0.250000
v -0.064463 0.413616 -0.250000
v -0.064463 0.413616 0.250000
v -0.083000 0.366000 -0.250000
v -0.083000 0.366000 0.250000
v -0.068824 0.372935 -0.250000
v -0.068824 0.372935 0.250000
v -0.053259 0.379482 -0.250000
v -0.053259 0.379482 0.250000
v -0.036250 0.385250 -0.250000
v -0.036250 0.385250 0.250000
v -0.017741 0.389852 -0.250000
v -0.017741 0.389852 0.250000
v 0.002324 0.392898 -0.250000
v 0.002324 0.392898 0.250000
v 0.024000 0.394000 -0.250000
v 0.024000 0.394000 0.250000
v 0.075995 0.387106 -0.250000
v 0.075995 0.387106 0.250000
v 0.121963 0.367518 -0.250000
v 0.121963 0.367518 0.250000
v 0.160375 0.336875 -0.250000
v 0.160375 0.336875 0.250000
v 0.189704 0.296815 -0.250000
v 0.189704 0.296815 0.250000
v 0.208421 0.248977 -0.250000
v 0.208421 0.248977 0.250000
v 0.215000 0.195000 -0.250000
v 0.215000 0.195000 0.250000
v 0.207681 0.141347 -0.250000
v 0.207681 0.141347 0.250000
v 0.187111 0.092778 -0.250000
v 0.187111 0.092778 0.250000
v 0.155375 0.051375 -0.250000
v 0.155375 0.051375 0.250000
v 0.114556 0.019222 -0.250000
v 0.114556 0.019222 0.250000
v 0.066736 -0.001597 -0.250000
v 0.066736 -0.001597 0.250000
v 0.014000 -0.009000 -0.250000
v 0.014000 -0.009000 0.250000
v -0.047782 -0.001074 -0.250000
v -0.047782 -0.001074 0.250000
v -0.101259 0.021741 -0.250000
v -0.101259 0.021741 0.250000
v -0.145125 0.058000 -0.250000
v -0.145125 0.058000 0.250000
v -0.178074 0.106259 -0.250000
v -0.178074 0.106259 0.250000
v -0.198801 0.165074 -0.250000
v -0.198801 0.165074 0.250000
v -0.206000 0.233000 -0.250000
v -0.206000 0.233000 0.250000
v -0.198069 0.318106 -0.250000
v -0.198069 0.318106 0.250000
v -0.174556 0.401519 -0.250000
v -0.174556 0.401519 0.250000
v -0.135875 0.481875 -0.250000
v -0.135875 0.481875 0.250000
v -0.082444 0.557815 -0.250000
v -0.082444 0.557815 0.250000
v -0.014681 0.627977 -0.250000
v -0.014681 0.627977 0.250000
v 0.067000 0.691000 -0.250000
v 0.067000 0.691000 0.250000
v 0.126000 0.616000 -0.250000
v 0.126000 0.616000 0.250000
v 0.038644 0.087644 -0.250000
v 0.038644 0.087644 0.250000
v 0.065148 0.098148 -0.250000
v 0.065148 0.098148 0.250000
v 0.086875 0.114875 -0.250000
v 0.086875 0.114875 0.250000
v 0.103185 0.137185 -0.250000
v 0.103185 0.137185 0.250000
v 0.113440 0.164440 -0.250000
v 0.113440 0.164440 0.250000
v 0.117000 0.196000 -0.250000
v 0.117000 0.196000 0.250000
v 0.113144 0.224611 -0.250000
v 0.113144 0.224611 0.250000
v 0.102148 0.249889 -0.250000
v 0.102148 0.249889 0.250000
v 0.084875 0.271000 -0.250000
v 0.084875 0.271000 0.250000
v 0.062185 0.287111 -0.250000
v 0.062185 0.287111 0.250000
v 0.034940 0.297389 -0.250000
v 0.034940 0.297389 0.250000
v 0.004000 0.301000 -0.250000
v 0.004000 0.301000 0.250000
v -0.015597 0.300278 -0.250000
v -0.015597 0.300278 0.250000
v -0.033111 0.297889 -0.250000
v -0.033111 0.297889 0.250000
v -0.049625 0.293500 -0.250000
v -0.049625 0.293500 0.250000
v -0.066222 0.286778 -0.250000
v -0.066222 0.286778 0.250000
v -0.083986 0.277389 -0.250000
v -0.083986 0.277389 0.250000
v -0.104000 0.265000 -0.250000
v -0.104000 0.265000 0.250000
v -0.109662 0.212704 -0.250000
v -0.109662 0.212704 0.250000
v -0.102296 0.168296 -0.250000
v -0.102296 0.168296 0.250000
v -0.084375 0.132500 -0.250000
v -0.084375 0.132500 0.250000
v -0.058370 0.106037 -0.250000
v -0.058370 0.106037 0.250000
v -0.026755 0.089630 -0.250000
v -0.026755 0.089630 0.250000
v 0.008000 0.084000 -0.250000
v 0.008000 0.084000 0.250000
vn 0.0000 0.0000 1.0000
vn 0.0000 0.0000 -1.0000
vn 0.6030 -0.7977 0.0000
vn 0.6889 -0.7248 0.0000
vn 0.7654 -0.6435 0.0000
vn 0.8364 -0.5481 0.0000
vn 0.9028 -0.4300 0.0000
vn 0.6769 0.7361 0.0000
vn -0.4137 0.9104 0.0000
vn -0.3546 0.9350 0.0000
vn -0.2814 0.9596 0.0000
vn -0.1959 0.9806 0.0000
vn -0.1006 0.9949 0.0000
vn 0.0405 0.9992 0.0000
vn 0.2641 0.9645 0.0000
vn 0.5125 0.8587 0.0000
vn 0.7216 0.6923 0.0000
vn 0.8764 0.4816 0.0000
vn 0.9696 0.2446 0.0000
vn 1.0000 -0.0071 0.0000
vn 0.9643 -0.2649 0.0000
vn 0.8642 -0.5032 0.0000
vn 0.7118 -0.7024 0.0000
vn 0.5132 -0.8582 0.0000
vn 0.2716 -0.9624 0.0000
vn 0.0059 -1.0000 0.0000
vn -0.2623 -0.9650 0.0000
vn -0.5201 -0.8541 0.0000
vn -0.7388 -0.6739 0.0000
vn -0.8920 -0.4519 0.0000
vn -0.9754 -0.2204 0.0000
vn -1.0000 -0.0063 0.0000
vn -0.9831 0.1828 0.0000
vn -0.9353 0.3539 0.0000
vn -0.8624 0.5063 0.0000
vn -0.7709 0.6370 0.0000
vn -0.6668 0.7452 0.0000
vn 0.1232 0.9924 0.0000
vn 0.9876 -0.1566 0.0000
vn -0.2453 0.9694 0.0000
vn -0.4940 0.8694 0.0000
vn -0.7158 0.6983 0.0000
vn -0.8797 0.4755 0.0000
vn -0.9722 0.2339 0.0000
vn -0.9999 -0.0108 0.0000
vn -0.9632 -0.2688 0.0000
vn -0.8535 -0.5210 0.0000
vn -0.6825 -0.7308 0.0000
vn -0.4698 -0.8827 0.0000
vn -0.2362 -0.9717 0.0000
vn -0.0396 -0.9992 0.0000
vn 0.0861 -0.9963 0.0000
vn 0.1964 -0.9805 0.0000
vn 0.3167 -0.9485 0.0000
vn 0.4219 -0.9066 0.0000
vn 0.4971 -0.8677 0.0000
vn 0.8461 -0.5330 0.0000
vn 0.9996 0.0282 0.0000
vn 0.9510 0.3091 0.0000
vn 0.8136 0.5813 0.0000
vn 0.5943 0.8042 0.0000
vn 0.3142 0.9493 0.0000
vn 0.0211 0.9998 0.0000
usemtl White
s off
f 35//1 37//1 36//1
f 34//1 37//1 35//1
f 34//1 1//1 37//1
f 34//1 2//1 1//1
f 33//1 2//1 34//1
f 33//1 3//1 2//1
f 33//1 4//1 3//1
f 32//1 4//1 33//1
f 32//1 5//1 4//1
f 32//1 6//1 5//1
f 31//1 6//1 32//1
f 11//1 13//1 12//1
f 10//1 13//1 11//1
f 9//1 13//1 10//1
f 9//1 14//1 13//1
f 8//1 14//1 9//1
f 7//1 14//1 8//1
f 6//1 14//1 7//1
f 6//1 15//1 14//1
f 31//1 15//1 6//1
f 31//1 16//1 15//1
f 30//1 52//1 31//1
f 52//1 51//1 31//1
f 51//1 50//1 31//1
f 50//1 49//1 31//1
f 49//1 16//1 31//1
f 48//1 16//1 49//1
f 47//1 16//1 48//1
f 47//1 17//1 16//1
f 30//1 53//1 52//1
f 46//1 17//1 47//1
f 30//1 54//1 53//1
f 30//1 55//1 54//1
f 45//1 17//1 46//1
f 30//1 56//1 55//1
f 44//1 17//1 45//1
f 44//1 18//1 17//1
f 29//1 56//1 30//1
f 43//1 18//1 44//1
f 29//1 57//1 56//1
f 42//1 18//1 43//1
f 42//1 19//1 18//1
f 29//1 58//1 57//1
f 28//1 58//1 29//1
f 41//1 19//1 42//1
f 41//1 20//1 19//1
f 40//1 20//1 41//1
f 28//1 59//1 58//1
f 39//1 20//1 40//1
f 27//1 59//1 28//1
f 27//1 60//1 59//1
f 38//1 20//1 39//1
f 38//1 21//1 20//1
f 27//1 61//1 60//1
f 61//1 21//1 38//1
f 27//1 21//1 61//1
f 26//1 21//1 27//1
f 26//1 22//1 21//1
f 25//1 22//1 26//1
f 25//1 23//1 22//1
f 24//1 23//1 25//1
f 98//2 96//2 97//2
f 98//2 95//2 96//2
f 62//2 95//2 98//2
f 63//2 95//2 62//2
f 63//2 94//2 95//2
f 64//2 94//2 63//2
f 65//2 94//2 64//2
f 65//2 93//2 94//2
f 66//2 93//2 65//2
f 67//2 93//2 66//2
f 67//2 92//2 93//2
f 74//2 72//2 73//2
f 74//2 71//2 72//2
f 74//2 70//2 71//2
f 75//2 70//2 74//2
f 75//2 69//2 70//2
f 75//2 68//2 69//2
f 75//2 67//2 68//2
f 76//2 67//2 75//2
f 76//2 92//2 67//2
f 77//2 92//2 76//2
f 113//2 91//2 92//2
f 112//2 113//2 92//2
f 111//2 112//2 92//2
f 110//2 111//2 92//2
f 77//2 110//2 92//2
f 77//2 109//2 110//2
f 77//2 108//2 109//2
f 78//2 108//2 77//2
f 114//2 91//2 113//2
f 78//2 107//2 108//2
f 115//2 91//2 114//2
f 116//2 91//2 115//2
f 78//2 106//2 107//2
f 117//2 91//2 116//2
f 78//2 105//2 106//2
f 79//2 105//2 78//2
f 117//2 90//2 91//2
f 79//2 104//2 105//2
f 118//2 90//2 117//2
f 79//2 103//2 104//2
f 80//2 103//2 79//2
f 119//2 90//2 118//2
f 119//2 89//2 90//2
f 80//2 102//2 103//2
f 81//2 102//2 80//2
f 81//2 101//2 102//2
f 120//2 89//2 119//2
f 81//2 100//2 101//2
f 120//2 88//2 89//2
f 121//2 88//2 120//2
f 81//2 99//2 100//2
f 82//2 99//2 81//2
f 122//2 88//2 121//2
f 82//2 122//2 99//2
f 82//2 88//2 122//2
f 82//2 87//2 88//2
f 83//2 87//2 82//2
f 83//2 86//2 87//2
f 84//2 86//2 83//2
f 84//2 85//2 86//2
s 1
f 124//3 126//4 125//4 123//3
f 126//4 128//5 127//5 125//4
f 128//5 130//6 129//6 127//5
f 130//6 132//7 131//7 129//6
f 132//7 134//8 133//8 131//7
f 134//8 136//9 135//9 133//8
f 136//9 138//10 137//10 135//9
f 138//10 140//11 139//11 137//10
f 140//11 142//12 141//12 139//11
f 142//12 144//13 143//13 141//12
f 144//13 146//14 145//14 143//13
f 146//14 148//15 147//15 145//14
f 148//15 150//16 149//16 147//15
f 150//16 152//17 151//17 149//16
f 152//17 154//18 153//18 151//17
f 154//18 156//19 155//19 153//18
f 156//19 158//20 157//20 155//19
f 158//20 160//21 159//21 157//20
f 160//21 162//22 161//22 159//21
f 162//22 164//23 163//23 161//22
f 164//23 166//24 165//24 163//23
f 166//24 168//25 167//25 165//24
f 168//25 170//26 169//26 167//25
f 170//26 172//27 171//27 169//26
f 172//27 174//28 173//28 171//27
f 174//28 176//29 175//29 173//28
f 176//29 178//30 177//30 175//29
f 178//30 180//31 179//31 177//30
f 180//31 182//32 181//32 179//31
f 182//32 184//33 183//33 181//32
f 184//33 186//34 185//34 183//33
f 186//34 188//35 187//35 185//34
f 188//35 190//36 189//36 187//35
f 190//36 192//37 191//37 189//36
f 192//37 194//38 193//38 191//37
f 194//38 196//39 195//39 193//38
f 196//39 124//3 123//3 195//39
f 198//40 200//41 199//41 197//40
f 200//41 202//42 201//42 199//41
f 202//42 204//43 203//43 201//42
f 204//43 206//44 205//44 203//43
f 206//44 208//45 207//45 205//44
f 208//45 210//46 209//46 207//45
f 210//46 212//47 211//47 209//46
f 212//47 214//48 213//48 211//47
f 214//48 216//49 215//49 213//48
f 216//49 218//50 217//50 215//49
f 218//50 220//51 219//51 217//50
f 220//51 222//52 221//52 219//51
f 222//52 224//53 223//53 221//52
f 224//53 226//54 225//54 223//53
f 226//54 228//55 227//55 225//54
f 228//55 230//56 229//56 227//55
f 230//56 232//57 231//57 229//56
f 232//57 234//58 233//58 231//57
f 234//58 236//59 235//59 233//58
f 236//59 238//60 237//60 235//59
f 238//60 240//61 239//61 237//60
f 240//61 242//62 241//62 239//61
f 242//62 244//63 243//63 241//62
f 244//63 198//40 197//40 243//63
