# Blender v2.79 (sub 0) OBJ File: ''
# www.blender.org
mtllib materials.mtl
o Text_T.001
v -0.068981 0.102032 0.250000
v -0.022185 0.143593 0.250000
v 0.017000 0.186875 0.250000
v 0.048185 0.231074 0.250000
v 0.070981 0.275384 0.250000
v 0.085000 0.319000 0.250000
v 0.069231 0.310602 0.250000
v 0.052185 0.303482 0.250000
v 0.034250 0.297750 0.250000
v 0.015815 0.293519 0.250000
v -0.002731 0.290898 0.250000
v -0.021000 0.290000 0.250000
v -0.072796 0.297032 0.250000
v -0.119037 0.316926 0.250000
v -0.158000 0.347875 0.250000
v -0.187963 0.388074 0.250000
v -0.207204 0.435718 0.250000
v -0.214000 0.489000 0.250000
v -0.207343 0.539033 0.250000
v -0.188074 0.586259 0.250000
v -0.157250 0.627875 0.250000
v -0.115926 0.661074 0.250000
v -0.065157 0.683051 0.250000
v -0.006000 0.691000 0.250000
v 0.053824 0.682486 0.250000
v 0.106259 0.658222 0.250000
v 0.149750 0.620125 0.250000
v 0.182741 0.570111 0.250000
v 0.203676 0.510097 0.250000
v 0.211000 0.442000 0.250000
v 0.201815 0.358107 0.250000
v 0.175519 0.273519 0.250000
v 0.134000 0.191375 0.250000
v 0.079148 0.114815 0.250000
v 0.012852 0.046977 0.250000
v -0.063000 -0.009000 0.250000
v -0.123000 0.063000 0.250000
v 0.015278 0.383935 0.250000
v 0.031889 0.386815 0.250000
v 0.049500 0.391750 0.250000
v 0.067778 0.398852 0.250000
v 0.086389 0.408231 0.250000
v 0.105000 0.420000 0.250000
v 0.107106 0.431227 0.250000
v 0.108519 0.441148 0.250000
v 0.109375 0.450125 0.250000
v 0.109815 0.458519 0.250000
v 0.109977 0.466690 0.250000
v 0.110000 0.475000 0.250000
v 0.105931 0.507028 0.250000
v 0.094444 0.536222 0.250000
v 0.076625 0.561250 0.250000
v 0.053556 0.580778 0.250000
v 0.026319 0.593472 0.250000
v -0.004000 0.598000 0.250000
v -0.034866 0.594375 0.250000
v -0.061926 0.584000 0.250000
v -0.084375 0.567625 0.250000
v -0.101407 0.546000 0.250000
v -0.112218 0.519875 0.250000
v -0.116000 0.490000 0.250000
v -0.111852 0.461588 0.250000
v -0.100148 0.436037 0.250000
v -0.082000 0.414375 0.250000
v -0.058519 0.397630 0.250000
v -0.030815 0.386829 0.250000
v 0.000000 0.383000 0.250000
v -0.068981 0.102032 -0.250000
v -0.022185 0.143593 -0.250000
v 0.017000 0.186875 -0.250000
v 0.048185 0.231074 -0.250000
v 0.070981 0.275384 -0.250000
v 0.085000 0.319000 -0.250000
v 0.069231 0.310602 -0.250000
v 0.052185 0.303482 -0.250000
v 0.034250 0.297750 -0.250000
v 0.015815 0.293519 -0.250000
v -0.002731 0.290898 -0.250000
v -0.021000 0.290000 -0.250000
v -0.072796 0.297032 -0.250000
v -0.119037 0.316926 -0.250000
v -0.158000 0.347875 -0.250000
v -0.187963 0.388074 -0.250000
v -0.207204 0.435718 -0.250000
v -0.214000 0.489000 -0.250000
v -0.207343 0.539033 -0.250000
v -0.188074 0.586259 -0.250000
v -0.157250 0.627875 -0.250000
v -0.115926 0.661074 -0.250000
v -0.065157 0.683051 -0.250000
v -0.006000 0.691000 -0.250000
v 0.053824 0.682486 -0.250000
v 0.106259 0.658222 -0.250000
v 0.149750 0.620125 -0.250000
v 0.182741 0.570111 -0.250000
v 0.203676 0.510097 -0.250000
v 0.211000 0.442000 -0.250000
v 0.201815 0.358107 -0.250000
v 0.175519 0.273519 -0.250000
v 0.134000 0.191375 -0.250000
v 0.079148 0.114815 -0.250000
v 0.012852 0.046977 -0.250000
v -0.063000 -0.009000 -0.250000
v -0.123000 0.063000 -0.250000
v 0.015278 0.383935 -0.250000
v 0.031889 0.386815 -0.250000
v 0.049500 0.391750 -0.250000
v 0.067778 0.398852 -0.250000
v 0.086389 0.408231 -0.250000
v 0.105000 0.420000 -0.250000
v 0.107106 0.431227 -0.250000
v 0.108519 0.441148 -0.250000
v 0.109375 0.450125 -0.250000
v 0.109815 0.458519 -0.250000
v 0.109977 0.466690 -0.250000
v 0.110000 0.475000 -0.250000
v 0.105931 0.507028 -0.250000
v 0.094444 0.536222 -0.250000
v 0.076625 0.561250 -0.250000
v 0.053556 0.580778 -0.250000
v 0.026319 0.593472 -0.250000
v -0.004000 0.598000 -0.250000
v -0.034866 0.594375 -0.250000
v -0.061926 0.584000 -0.250000
v -0.084375 0.567625 -0.250000
v -0.101407 0.546000 -0.250000
v -0.112218 0.519875 -0.250000
v -0.116000 0.490000 -0.250000
v -0.111852 0.461588 -0.250000
v -0.100148 0.436037 -0.250000
v -0.082000 0.414375 -0.250000
v -0.058519 0.397630 -0.250000
v -0.030815 0.386829 -0.250000
v 0.000000 0.383000 -0.250000
v -0.068981 0.102032 -0.250000
v -0.068981 0.102032 0.250000
v -0.022185 0.143593 -0.250000
v -0.022185 0.143593 0.250000
v 0.017000 0.186875 -0.250000
v 0.017000 0.186875 0.250000
v 0.048185 0.231074 -0.250000
v 0.048185 0.231074 0.250000
v 0.070981 0.275384 -0.250000
v 0.070981 0.275384 0.250000
v 0.085000 0.319000 -0.250000
v 0.085000 0.319000 0.250000
v 0.069231 0.310602 -0.250000
v 0.069231 0.310602 0.250000
v 0.052185 0.303482 -0.250000
v 0.052185 0.303482 0.250000
v 0.034250 0.297750 -0.250000
v 0.034250 0.297750 0.250000
v 0.015815 0.293519 -0.250000
v 0.015815 0.293519 0.250000
v -0.002731 0.290898 -0.250000
v -0.002731 0.290898 0.250000
v -0.021000 0.290000 -0.250000
v -0.021000 0.290000 0.250000
v -0.072796 0.297032 -0.250000
v -0.072796 0.297032 0.250000
v -0.119037 0.316926 -0.250000
v -0.119037 0.316926 0.250000
v -0.158000 0.347875 -0.250000
v -0.158000 0.347875 0.250000
v -0.187963 0.388074 -0.250000
v -0.187963 0.388074 0.250000
v -0.207204 0.435718 -0.250000
v -0.207204 0.435718 0.250000
v -0.214000 0.489000 -0.250000
v -0.214000 0.489000 0.250000
v -0.207343 0.539033 -0.250000
v -0.207343 0.539033 0.250000
v -0.188074 0.586259 -0.250000
v -0.188074 0.586259 0.250000
v -0.157250 0.627875 -0.250000
v -0.157250 0.627875 0.250000
v -0.115926 0.661074 -0.250000
v -0.115926 0.661074 0.250000
v -0.065157 0.683051 -0.250000
v -0.065157 0.683051 0.250000
v -0.006000 0.691000 -0.250000
v -0.006000 0.691000 0.250000
v 0.053824 0.682486 -0.250000
v 0.053824 0.682486 0.250000
v 0.106259 0.658222 -0.250000
v 0.106259 0.658222 0.250000
v 0.149750 0.620125 -0.250000
v 0.149750 0.620125 0.250000
v 0.182741 0.570111 -0.250000
v 0.182741 0.570111 0.250000
v 0.203676 0.510097 -0.250000
v 0.203676 0.510097 0.250000
v 0.211000 0.442000 -0.250000
v 0.211000 0.442000 0.250000
v 0.201815 0.358107 -0.250000
v 0.201815 0.358107 0.250000
v 0.175519 0.273519 -0.250000
v 0.175519 0.273519 0.250000
v 0.134000 0.191375 -0.250000
v 0.134000 0.191375 0.250000
v 0.079148 0.114815 -0.250000
v 0.079148 0.114815 0.250000
v 0.012852 0.046977 -0.250000
v 0.012852 0.046977 0.250000
v -0.063000 -0.009000 -0.250000
v -0.063000 -0.009000 0.250000
v -0.123000 0.063000 -0.250000
v -0.123000 0.063000 0.250000
v 0.015278 0.383935 -0.250000
v 0.015278 0.383935 0.250000
v 0.031889 0.386815 -0.250000
v 0.031889 0.386815 0.250000
v 0.049500 0.391750 -0.250000
v 0.049500 0.391750 0.250000
v 0.067778 0.398852 -0.250000
v 0.067778 0.398852 0.250000
v 0.086389 0.408231 -0.250000
v 0.086389 0.408231 0.250000
v 0.105000 0.420000 -0.250000
v 0.105000 0.420000 0.250000
v 0.107106 0.431227 -0.250000
v 0.107106 0.431227 0.250000
v 0.108519 0.441148 -0.250000
v 0.108519 0.441148 0.250000
v 0.109375 0.450125 -0.250000
v 0.109375 0.450125 0.250000
v 0.109815 0.458519 -0.250000
v 0.109815 0.458519 0.250000
v 0.109977 0.466690 -0.250000
v 0.109977 0.466690 0.250000
v 0.110000 0.475000 -0.250000
v 0.110000 0.475000 0.250000
v 0.105931 0.507028 -0.250000
v 0.105931 0.507028 0.250000
v 0.094444 0.536222 -0.250000
v 0.094444 0.536222 0.250000
v 0.076625 0.561250 -0.250000
v 0.076625 0.561250 0.250000
v 0.053556 0.580778 -0.250000
v 0.053556 0.580778 0.250000
v 0.026319 0.593472 -0.250000
v 0.026319 0.593472 0.250000
v -0.004000 0.598000 -0.250000
v -0.004000 0.598000 0.250000
v -0.034866 0.594375 -0.250000
v -0.034866 0.594375 0.250000
v -0.061926 0.584000 -0.250000
v -0.061926 0.584000 0.250000
v -0.084375 0.567625 -0.250000
v -0.084375 0.567625 0.250000
v -0.101407 0.546000 -0.250000
v -0.101407 0.546000 0.250000
v -0.112218 0.519875 -0.250000
v -0.112218 0.519875 0.250000
v -0.116000 0.490000 -0.250000
v -0.116000 0.490000 0.250000
v -0.111852 0.461588 -0.250000
v -0.111852 0.461588 0.250000
v -0.100148 0.436037 -0.250000
v -0.100148 0.436037 0.250000
v -0.082000 0.414375 -0.250000
v -0.082000 0.414375 0.250000
v -0.058519 0.397630 -0.250000
v -0.058519 0.397630 0.250000
v -0.030815 0.386829 -0.250000
v -0.030815 0.386829 0.250000
v 0.000000 0.383000 -0.250000
v 0.000000 0.383000 0.250000
vn 0.0000 0.0000 1.0000
vn 0.0000 0.0000 -1.0000
vn -0.6256 0.7801 0.0000
vn -0.7037 0.7105 0.0000
vn -0.7806 0.6250 0.0000
vn -0.8552 0.5182 0.0000
vn -0.9237 0.3830 0.0000
vn -0.6413 -0.7673 0.0000
vn 0.4282 -0.9037 0.0000
vn 0.3452 -0.9385 0.0000
vn 0.2643 -0.9644 0.0000
vn 0.1820 -0.9833 0.0000
vn 0.0946 -0.9955 0.0000
vn -0.0429 -0.9991 0.0000
vn -0.2673 -0.9636 0.0000
vn -0.5131 -0.8583 0.0000
vn -0.7179 -0.6961 0.0000
vn -0.8717 -0.4901 0.0000
vn -0.9676 -0.2526 0.0000
vn -1.0000 0.0027 0.0000
vn -0.9664 0.2569 0.0000
vn -0.8715 0.4903 0.0000
vn -0.7208 0.6931 0.0000
vn -0.5164 0.8563 0.0000
vn -0.2677 0.9635 0.0000
vn 0.0039 1.0000 0.0000
vn 0.2834 0.9590 0.0000
vn 0.5450 0.8384 0.0000
vn 0.7536 0.6573 0.0000
vn 0.8963 0.4434 0.0000
vn 0.9756 0.2196 0.0000
vn 1.0000 -0.0009 0.0000
vn 0.9790 -0.2038 0.0000
vn 0.9269 -0.3753 0.0000
vn 0.8552 -0.5183 0.0000
vn 0.7663 -0.6425 0.0000
vn 0.6566 -0.7542 0.0000
vn -0.1198 -0.9928 0.0000
vn -0.9922 0.1248 0.0000
vn -0.1161 0.9932 0.0000
vn -0.2206 0.9753 0.0000
vn -0.3164 0.9486 0.0000
vn -0.4066 0.9136 0.0000
vn -0.4928 0.8701 0.0000
vn -0.8274 0.5615 0.0000
vn -0.9867 0.1627 0.0000
vn -0.9930 0.1180 0.0000
vn -0.9973 0.0736 0.0000
vn -0.9993 0.0361 0.0000
vn -0.9999 0.0113 0.0000
vn -0.9981 -0.0617 0.0000
vn -0.9687 -0.2480 0.0000
vn -0.8791 -0.4766 0.0000
vn -0.7361 -0.6769 0.0000
vn -0.5390 -0.8422 0.0000
vn -0.2880 -0.9576 0.0000
vn -0.0157 -0.9998 0.0000
vn 0.2391 -0.9710 0.0000
vn 0.4778 -0.8784 0.0000
vn 0.6939 -0.7200 0.0000
vn 0.8629 -0.5053 0.0000
vn 0.9666 -0.2562 0.0000
vn 0.9999 0.0095 0.0000
vn 0.9590 0.2833 0.0000
vn 0.8454 0.5341 0.0000
vn 0.6790 0.7341 0.0000
vn 0.4756 0.8797 0.0000
vn 0.2452 0.9695 0.0000
vn 0.0312 0.9995 0.0000
usemtl White
s off
f 23//1 25//1 24//1
f 22//1 25//1 23//1
f 22//1 26//1 25//1
f 21//1 26//1 22//1
f 21//1 27//1 26//1
f 20//1 27//1 21//1
f 20//1 55//1 27//1
f 55//1 54//1 27//1
f 54//1 28//1 27//1
f 20//1 56//1 55//1
f 20//1 57//1 56//1
f 53//1 28//1 54//1
f 19//1 57//1 20//1
f 19//1 58//1 57//1
f 52//1 28//1 53//1
f 52//1 29//1 28//1
f 19//1 59//1 58//1
f 51//1 29//1 52//1
f 19//1 60//1 59//1
f 18//1 60//1 19//1
f 50//1 29//1 51//1
f 18//1 61//1 60//1
f 50//1 30//1 29//1
f 49//1 30//1 50//1
f 18//1 62//1 61//1
f 17//1 62//1 18//1
f 48//1 30//1 49//1
f 47//1 30//1 48//1
f 17//1 63//1 62//1
f 46//1 30//1 47//1
f 45//1 30//1 46//1
f 45//1 31//1 30//1
f 44//1 31//1 45//1
f 17//1 64//1 63//1
f 16//1 64//1 17//1
f 43//1 31//1 44//1
f 42//1 31//1 43//1
f 16//1 65//1 64//1
f 41//1 31//1 42//1
f 40//1 31//1 41//1
f 16//1 66//1 65//1
f 39//1 31//1 40//1
f 15//1 66//1 16//1
f 15//1 67//1 66//1
f 38//1 31//1 39//1
f 67//1 31//1 38//1
f 15//1 31//1 67//1
f 15//1 6//1 31//1
f 6//1 32//1 31//1
f 14//1 6//1 15//1
f 14//1 7//1 6//1
f 5//1 32//1 6//1
f 13//1 7//1 14//1
f 13//1 8//1 7//1
f 13//1 9//1 8//1
f 13//1 10//1 9//1
f 12//1 10//1 13//1
f 12//1 11//1 10//1
f 4//1 32//1 5//1
f 4//1 33//1 32//1
f 3//1 33//1 4//1
f 3//1 34//1 33//1
f 2//1 34//1 3//1
f 1//1 34//1 2//1
f 1//1 35//1 34//1
f 37//1 35//1 1//1
f 36//1 35//1 37//1
f 92//2 90//2 91//2
f 92//2 89//2 90//2
f 93//2 89//2 92//2
f 93//2 88//2 89//2
f 94//2 88//2 93//2
f 94//2 87//2 88//2
f 122//2 87//2 94//2
f 121//2 122//2 94//2
f 95//2 121//2 94//2
f 123//2 87//2 122//2
f 124//2 87//2 123//2
f 95//2 120//2 121//2
f 124//2 86//2 87//2
f 125//2 86//2 124//2
f 95//2 119//2 120//2
f 96//2 119//2 95//2
f 126//2 86//2 125//2
f 96//2 118//2 119//2
f 127//2 86//2 126//2
f 127//2 85//2 86//2
f 96//2 117//2 118//2
f 128//2 85//2 127//2
f 97//2 117//2 96//2
f 97//2 116//2 117//2
f 129//2 85//2 128//2
f 129//2 84//2 85//2
f 97//2 115//2 116//2
f 97//2 114//2 115//2
f 130//2 84//2 129//2
f 97//2 113//2 114//2
f 97//2 112//2 113//2
f 98//2 112//2 97//2
f 98//2 111//2 112//2
f 131//2 84//2 130//2
f 131//2 83//2 84//2
f 98//2 110//2 111//2
f 98//2 109//2 110//2
f 132//2 83//2 131//2
f 98//2 108//2 109//2
f 98//2 107//2 108//2
f 133//2 83//2 132//2
f 98//2 106//2 107//2
f 133//2 82//2 83//2
f 134//2 82//2 133//2
f 98//2 105//2 106//2
f 98//2 134//2 105//2
f 98//2 82//2 134//2
f 73//2 82//2 98//2
f 99//2 73//2 98//2
f 73//2 81//2 82//2
f 74//2 81//2 73//2
f 99//2 72//2 73//2
f 74//2 80//2 81//2
f 75//2 80//2 74//2
f 76//2 80//2 75//2
f 77//2 80//2 76//2
f 77//2 79//2 80//2
f 78//2 79//2 77//2
f 99//2 71//2 72//2
f 100//2 71//2 99//2
f 100//2 70//2 71//2
f 101//2 70//2 100//2
f 101//2 69//2 70//2
f 101//2 68//2 69//2
f 102//2 68//2 101//2
f 102//2 104//2 68//2
f 102//2 103//2 104//2
s 1
f 136//3 138//4 137//4 135//3
f 138//4 140//5 139//5 137//4
f 140//5 142//6 141//6 139//5
f 142//6 144//7 143//7 141//6
f 144//7 146//8 145//8 143//7
f 146//8 148//9 147//9 145//8
f 148//9 150//10 149//10 147//9
f 150//10 152//11 151//11 149//10
f 152//11 154//12 153//12 151//11
f 154//12 156//13 155//13 153//12
f 156//13 158//14 157//14 155//13
f 158//14 160//15 159//15 157//14
f 160//15 162//16 161//16 159//15
f 162//16 164//17 163//17 161//16
f 164//17 166//18 165//18 163//17
f 166//18 168//19 167//19 165//18
f 168//19 170//20 169//20 167//19
f 170//20 172//21 171//21 169//20
f 172//21 174//22 173//22 171//21
f 174//22 176//23 175//23 173//22
f 176//23 178//24 177//24 175//23
f 178//24 180//25 179//25 177//24
f 180//25 182//26 181//26 179//25
f 182//26 184//27 183//27 181//26
f 184//27 186//28 185//28 183//27
f 186//28 188//29 187//29 185//28
f 188//29 190//30 189//30 187//29
f 190//30 192//31 191//31 189//30
f 192//31 194//32 193//32 191//31
f 194//32 196//33 195//33 193//32
f 196//33 198//34 197//34 195//33
f 198//34 200//35 199//35 197//34
f 200//35 202//36 201//36 199//35
f 202//36 204//37 203//37 201//36
f 204//37 206//38 205//38 203//37
f 206//38 208//39 207//39 205//38
f 208//39 136//3 135//3 207//39
f 210//40 212//41 211//41 209//40
f 212//41 214//42 213//42 211//41
f 214//42 216//43 215//43 213//42
f 216//43 218//44 217//44 215//43
f 218//44 220//45 219//45 217//44
f 220//45 222//46 221//46 219//45
f 222//46 224//47 223//47 221//46
f 224//47 226//48 225//48 223//47
f 226//48 228//49 227//49 225//48
f 228//49 230//50 229//50 227//49
f 230//50 232//51 231//51 229//50
f 232//51 234//52 233//52 231//51
f 234//52 236//53 235//53 233//52
f 236//53 238//54 237//54 235//53
f 238//54 240//55 239//55 237//54
f 240//55 242//56 241//56 239//55
f 242//56 244//57 243//57 241//56
f 244//57 246//58 245//58 243//57
f 246//58 248//59 247//59 245//58
f 248//59 250//60 249//60 247//59
f 250//60 252//61 251//61 249//60
f 252//61 254//62 253//62 251//61
f 254//62 256//63 255//63 253//62
f 256//63 258//64 257//64 255//63
f 258//64 260//65 259//65 257//64
f 260//65 262//66 261//66 259//65
f 262//66 264//67 263//67 261//66
f 264//67 266//68 265//68 263//67
f 266//68 268//69 267//69 265//68
f 268//69 210//40 209//40 267//69
