# Blender v2.79 (sub 0) OBJ File: 'laser.blend'
# www.blender.org
mtllib materials.mtl
o Grid.005_Grid.007
v -0.500000 0.500000 0.500000
v -0.500000 -0.500000 0.500000
v -0.500000 0.500000 -0.500000
v -0.500000 -0.500000 -0.500000
vn 1.0000 -0.0000 0.0000
usemtl White
s off
f 1//1 2//1 4//1 3//1
o Grid.004_Grid.006
v 0.500000 0.500000 0.500000
v 0.500000 -0.500000 0.500000
v 0.500000 0.500000 -0.500000
v 0.500000 -0.500000 -0.500000
vn 1.0000 -0.0000 0.0000
usemtl White
s off
f 5//2 6//2 8//2 7//2
o Grid.003
v -0.500000 0.500000 0.500000
v -0.461538 0.500000 0.500000
v -0.423077 0.500000 0.500000
v -0.384615 0.500000 0.500000
v -0.346154 0.500000 0.500000
v -0.307692 0.500000 0.500000
v -0.269231 0.500000 0.500000
v -0.230769 0.500000 0.500000
v -0.192308 0.500000 0.500000
v -0.153846 0.500000 0.500000
v -0.115385 0.500000 0.500000
v -0.076923 0.500000 0.500000
v -0.038462 0.500000 0.500000
v 0.000000 0.500000 0.500000
v 0.038462 0.500000 0.500000
v 0.076923 0.500000 0.500000
v 0.115385 0.500000 0.500000
v 0.153846 0.500000 0.500000
v 0.192308 0.500000 0.500000
v 0.230769 0.500000 0.500000
v 0.269231 0.500000 0.500000
v 0.307692 0.500000 0.500000
v 0.346154 0.500000 0.500000
v 0.384615 0.500000 0.500000
v 0.423077 0.500000 0.500000
v 0.461538 0.500000 0.500000
v 0.500000 0.500000 0.500000
v -0.500000 0.500000 -0.500000
v -0.461538 0.500000 -0.500000
v -0.423077 0.500000 -0.500000
v -0.384615 0.500000 -0.500000
v -0.346154 0.500000 -0.500000
v -0.307692 0.500000 -0.500000
v -0.269231 0.500000 -0.500000
v -0.230769 0.500000 -0.500000
v -0.192308 0.500000 -0.500000
v -0.153846 0.500000 -0.500000
v -0.115385 0.500000 -0.500000
v -0.076923 0.500000 -0.500000
v -0.038462 0.500000 -0.500000
v 0.000000 0.500000 -0.500000
v 0.038462 0.500000 -0.500000
v 0.076923 0.500000 -0.500000
v 0.115385 0.500000 -0.500000
v 0.153846 0.500000 -0.500000
v 0.192308 0.500000 -0.500000
v 0.230769 0.500000 -0.500000
v 0.269231 0.500000 -0.500000
v 0.307692 0.500000 -0.500000
v 0.346154 0.500000 -0.500000
v 0.384615 0.500000 -0.500000
v 0.423077 0.500000 -0.500000
v 0.461538 0.500000 -0.500000
v 0.500000 0.500000 -0.500000
vn 0.0000 1.0000 0.0000
usemtl White
s off
f 9//3 10//3 37//3 36//3
f 10//3 11//3 38//3 37//3
f 11//3 12//3 39//3 38//3
f 12//3 13//3 40//3 39//3
f 13//3 14//3 41//3 40//3
f 14//3 15//3 42//3 41//3
f 15//3 16//3 43//3 42//3
f 16//3 17//3 44//3 43//3
f 17//3 18//3 45//3 44//3
f 18//3 19//3 46//3 45//3
f 19//3 20//3 47//3 46//3
f 20//3 21//3 48//3 47//3
f 21//3 22//3 49//3 48//3
f 22//3 23//3 50//3 49//3
f 23//3 24//3 51//3 50//3
f 24//3 25//3 52//3 51//3
f 25//3 26//3 53//3 52//3
f 26//3 27//3 54//3 53//3
f 27//3 28//3 55//3 54//3
f 28//3 29//3 56//3 55//3
f 29//3 30//3 57//3 56//3
f 30//3 31//3 58//3 57//3
f 31//3 32//3 59//3 58//3
f 32//3 33//3 60//3 59//3
f 33//3 34//3 61//3 60//3
f 34//3 35//3 62//3 61//3
o Grid.002
v -0.500000 -0.500000 0.500000
v -0.461538 -0.500000 0.500000
v -0.423077 -0.500000 0.500000
v -0.384615 -0.500000 0.500000
v -0.346154 -0.500000 0.500000
v -0.307692 -0.500000 0.500000
v -0.269231 -0.500000 0.500000
v -0.230769 -0.500000 0.500000
v -0.192308 -0.500000 0.500000
v -0.153846 -0.500000 0.500000
v -0.115385 -0.500000 0.500000
v -0.076923 -0.500000 0.500000
v -0.038462 -0.500000 0.500000
v 0.000000 -0.500000 0.500000
v 0.038462 -0.500000 0.500000
v 0.076923 -0.500000 0.500000
v 0.115385 -0.500000 0.500000
v 0.153846 -0.500000 0.500000
v 0.192308 -0.500000 0.500000
v 0.230769 -0.500000 0.500000
v 0.269231 -0.500000 0.500000
v 0.307692 -0.500000 0.500000
v 0.346154 -0.500000 0.500000
v 0.384615 -0.500000 0.500000
v 0.423077 -0.500000 0.500000
v 0.461538 -0.500000 0.500000
v 0.500000 -0.500000 0.500000
v -0.500000 -0.500000 -0.500000
v -0.461538 -0.500000 -0.500000
v -0.423077 -0.500000 -0.500000
v -0.384615 -0.500000 -0.500000
v -0.346154 -0.500000 -0.500000
v -0.307692 -0.500000 -0.500000
v -0.269231 -0.500000 -0.500000
v -0.230769 -0.500000 -0.500000
v -0.192308 -0.500000 -0.500000
v -0.153846 -0.500000 -0.500000
v -0.115385 -0.500000 -0.500000
v -0.076923 -0.500000 -0.500000
v -0.038462 -0.500000 -0.500000
v 0.000000 -0.500000 -0.500000
v 0.038462 -0.500000 -0.500000
v 0.076923 -0.500000 -0.500000
v 0.115385 -0.500000 -0.500000
v 0.153846 -0.500000 -0.500000
v 0.192308 -0.500000 -0.500000
v 0.230769 -0.500000 -0.500000
v 0.269231 -0.500000 -0.500000
v 0.307692 -0.500000 -0.500000
v 0.346154 -0.500000 -0.500000
v 0.384615 -0.500000 -0.500000
v 0.423077 -0.500000 -0.500000
v 0.461538 -0.500000 -0.500000
v 0.500000 -0.500000 -0.500000
vn 0.0000 1.0000 0.0000
usemtl White
s off
f 63//4 64//4 91//4 90//4
f 64//4 65//4 92//4 91//4
f 65//4 66//4 93//4 92//4
f 66//4 67//4 94//4 93//4
f 67//4 68//4 95//4 94//4
f 68//4 69//4 96//4 95//4
f 69//4 70//4 97//4 96//4
f 70//4 71//4 98//4 97//4
f 71//4 72//4 99//4 98//4
f 72//4 73//4 100//4 99//4
f 73//4 74//4 101//4 100//4
f 74//4 75//4 102//4 101//4
f 75//4 76//4 103//4 102//4
f 76//4 77//4 104//4 103//4
f 77//4 78//4 105//4 104//4
f 78//4 79//4 106//4 105//4
f 79//4 80//4 107//4 106//4
f 80//4 81//4 108//4 107//4
f 81//4 82//4 109//4 108//4
f 82//4 83//4 110//4 109//4
f 83//4 84//4 111//4 110//4
f 84//4 85//4 112//4 111//4
f 85//4 86//4 113//4 112//4
f 86//4 87//4 114//4 113//4
f 87//4 88//4 115//4 114//4
f 88//4 89//4 116//4 115//4
o Grid.001
v -0.500000 -0.500000 0.500000
v -0.461538 -0.500000 0.500000
v -0.423077 -0.500000 0.500000
v -0.384615 -0.500000 0.500000
v -0.346154 -0.500000 0.500000
v -0.307692 -0.500000 0.500000
v -0.269231 -0.500000 0.500000
v -0.230769 -0.500000 0.500000
v -0.192308 -0.500000 0.500000
v -0.153846 -0.500000 0.500000
v -0.115385 -0.500000 0.500000
v -0.076923 -0.500000 0.500000
v -0.038462 -0.500000 0.500000
v 0.000000 -0.500000 0.500000
v 0.038462 -0.500000 0.500000
v 0.076923 -0.500000 0.500000
v 0.115385 -0.500000 0.500000
v 0.153846 -0.500000 0.500000
v 0.192308 -0.500000 0.500000
v 0.230769 -0.500000 0.500000
v 0.269231 -0.500000 0.500000
v 0.307692 -0.500000 0.500000
v 0.346154 -0.500000 0.500000
v 0.384615 -0.500000 0.500000
v 0.423077 -0.500000 0.500000
v 0.461538 -0.500000 0.500000
v 0.500000 -0.500000 0.500000
v -0.500000 0.500000 0.500000
v -0.461538 0.500000 0.500000
v -0.423077 0.500000 0.500000
v -0.384615 0.500000 0.500000
v -0.346154 0.500000 0.500000
v -0.307692 0.500000 0.500000
v -0.269231 0.500000 0.500000
v -0.230769 0.500000 0.500000
v -0.192308 0.500000 0.500000
v -0.153846 0.500000 0.500000
v -0.115385 0.500000 0.500000
v -0.076923 0.500000 0.500000
v -0.038462 0.500000 0.500000
v 0.000000 0.500000 0.500000
v 0.038462 0.500000 0.500000
v 0.076923 0.500000 0.500000
v 0.115385 0.500000 0.500000
v 0.153846 0.500000 0.500000
v 0.192308 0.500000 0.500000
v 0.230769 0.500000 0.500000
v 0.269231 0.500000 0.500000
v 0.307692 0.500000 0.500000
v 0.346154 0.500000 0.500000
v 0.384615 0.500000 0.500000
v 0.423077 0.500000 0.500000
v 0.461538 0.500000 0.500000
v 0.500000 0.500000 0.500000
vn 0.0000 -0.0000 1.0000
usemtl White
s off
f 117//5 118//5 145//5 144//5
f 118//5 119//5 146//5 145//5
f 119//5 120//5 147//5 146//5
f 120//5 121//5 148//5 147//5
f 121//5 122//5 149//5 148//5
f 122//5 123//5 150//5 149//5
f 123//5 124//5 151//5 150//5
f 124//5 125//5 152//5 151//5
f 125//5 126//5 153//5 152//5
f 126//5 127//5 154//5 153//5
f 127//5 128//5 155//5 154//5
f 128//5 129//5 156//5 155//5
f 129//5 130//5 157//5 156//5
f 130//5 131//5 158//5 157//5
f 131//5 132//5 159//5 158//5
f 132//5 133//5 160//5 159//5
f 133//5 134//5 161//5 160//5
f 134//5 135//5 162//5 161//5
f 135//5 136//5 163//5 162//5
f 136//5 137//5 164//5 163//5
f 137//5 138//5 165//5 164//5
f 138//5 139//5 166//5 165//5
f 139//5 140//5 167//5 166//5
f 140//5 141//5 168//5 167//5
f 141//5 142//5 169//5 168//5
f 142//5 143//5 170//5 169//5
o Grid
v -0.500000 -0.500000 -0.500000
v -0.461538 -0.500000 -0.500000
v -0.423077 -0.500000 -0.500000
v -0.384615 -0.500000 -0.500000
v -0.346154 -0.500000 -0.500000
v -0.307692 -0.500000 -0.500000
v -0.269231 -0.500000 -0.500000
v -0.230769 -0.500000 -0.500000
v -0.192308 -0.500000 -0.500000
v -0.153846 -0.500000 -0.500000
v -0.115385 -0.500000 -0.500000
v -0.076923 -0.500000 -0.500000
v -0.038462 -0.500000 -0.500000
v 0.000000 -0.500000 -0.500000
v 0.038462 -0.500000 -0.500000
v 0.076923 -0.500000 -0.500000
v 0.115385 -0.500000 -0.500000
v 0.153846 -0.500000 -0.500000
v 0.192308 -0.500000 -0.500000
v 0.230769 -0.500000 -0.500000
v 0.269231 -0.500000 -0.500000
v 0.307692 -0.500000 -0.500000
v 0.346154 -0.500000 -0.500000
v 0.384615 -0.500000 -0.500000
v 0.423077 -0.500000 -0.500000
v 0.461538 -0.500000 -0.500000
v 0.500000 -0.500000 -0.500000
v -0.500000 0.500000 -0.500000
v -0.461538 0.500000 -0.500000
v -0.423077 0.500000 -0.500000
v -0.384615 0.500000 -0.500000
v -0.346154 0.500000 -0.500000
v -0.307692 0.500000 -0.500000
v -0.269231 0.500000 -0.500000
v -0.230769 0.500000 -0.500000
v -0.192308 0.500000 -0.500000
v -0.153846 0.500000 -0.500000
v -0.115385 0.500000 -0.500000
v -0.076923 0.500000 -0.500000
v -0.038462 0.500000 -0.500000
v 0.000000 0.500000 -0.500000
v 0.038462 0.500000 -0.500000
v 0.076923 0.500000 -0.500000
v 0.115385 0.500000 -0.500000
v 0.153846 0.500000 -0.500000
v 0.192308 0.500000 -0.500000
v 0.230769 0.500000 -0.500000
v 0.269231 0.500000 -0.500000
v 0.307692 0.500000 -0.500000
v 0.346154 0.500000 -0.500000
v 0.384615 0.500000 -0.500000
v 0.423077 0.500000 -0.500000
v 0.461538 0.500000 -0.500000
v 0.500000 0.500000 -0.500000
vn 0.0000 -0.0000 1.0000
usemtl White
s off
f 171//6 172//6 199//6 198//6
f 172//6 173//6 200//6 199//6
f 173//6 174//6 201//6 200//6
f 174//6 175//6 202//6 201//6
f 175//6 176//6 203//6 202//6
f 176//6 177//6 204//6 203//6
f 177//6 178//6 205//6 204//6
f 178//6 179//6 206//6 205//6
f 179//6 180//6 207//6 206//6
f 180//6 181//6 208//6 207//6
f 181//6 182//6 209//6 208//6
f 182//6 183//6 210//6 209//6
f 183//6 184//6 211//6 210//6
f 184//6 185//6 212//6 211//6
f 185//6 186//6 213//6 212//6
f 186//6 187//6 214//6 213//6
f 187//6 188//6 215//6 214//6
f 188//6 189//6 216//6 215//6
f 189//6 190//6 217//6 216//6
f 190//6 191//6 218//6 217//6
f 191//6 192//6 219//6 218//6
f 192//6 193//6 220//6 219//6
f 193//6 194//6 221//6 220//6
f 194//6 195//6 222//6 221//6
f 195//6 196//6 223//6 222//6
f 196//6 197//6 224//6 223//6
